<?xml version="1.0" encoding="utf-8"?>
<!-- Generator: Adobe Illustrator 22.0.1, SVG Export Plug-In . SVG Version: 6.00 Build 0)  -->
<svg version="1.1" xmlns="http://www.w3.org/2000/svg" xmlns:xlink="http://www.w3.org/1999/xlink" x="0px" y="0px"
	 viewBox="0 0 281 281" style="enable-background:new 0 0 281 281;" xml:space="preserve">
<style type="text/css">
	.st0{display:none;}
	.st1{display:inline;fill:#020419;}
	.st2{fill:#FFFFFF;}
	.st3{fill:none;}
	.st4{fill:#EB6209;}
	.st5{display:inline;}
</style>
<g id="Layer_2" class="st0">
	<path class="st1" d="M102,338H-87c-6.6,0-12-5.4-12-12V108c0-6.6,5.4-12,12-12h189c6.6,0,12,5.4,12,12v218
		C114,332.6,108.6,338,102,338z"/>
</g>
<g id="Layer_3">
	<path class="st2" d="M269,281H12c-6.6,0-12-5.4-12-12V12C0,5.4,5.4,0,12,0h257c6.6,0,12,5.4,12,12v257C281,275.6,275.6,281,269,281
		z"/>
	<g>
		<rect x="4.8" y="83.4" class="st3" width="272.2" height="194.6"/>
		<path class="st4" d="M45.6,202.6c-13.3,0-26.6-4.8-36.8-11.5l6.9-17.9c9.3,6.7,20.5,10.9,30.6,10.9c12.3,0,17.8-7.2,17.8-15.4
			c0-8.2-3.5-13.3-22.1-21.1c-20.5-8.6-27.8-19.2-27.8-33.3c0-17,14.1-32.8,38.6-32.8c11.4,0,22.6,3.8,29.4,8.5l-6.4,17.6
			c-6.2-4.3-15.5-8.3-23.5-8.3c-12.3,0-18.1,6.7-18.1,14.6c0,7.8,5.8,12.5,20.3,18.9c23.2,10.1,29.9,19.5,29.9,34.9
			C84.3,186.4,69.7,202.6,45.6,202.6z"/>
		<path class="st4" d="M125.6,201.8c-9.9,0-21.6-1-31.7-2.2V84.7c8.6-1.3,20.5-2.2,30.1-2.2c30.9,0,46.1,15,46.1,30.7
			c0,12.3-5.8,21.3-20.5,26.7c17.1,4.8,23.7,15.2,23.7,28.2C173.3,185.5,157.1,201.8,125.6,201.8z M127.5,99.7
			c-5,0-9.9,0.5-13.9,1.1v32.5c2.9,0.3,6.9,0.5,11.8,0.5c17,0,24-7.5,24-17.3S142.2,99.7,127.5,99.7z M125.7,148
			c-4.2,0-9.4,0.2-12.2,0.5v35.2c4,0.5,8.8,0.8,14.2,0.8c16,0,24-7.5,24-18.6C151.8,155.9,143,148,125.7,148z"/>
		<path class="st4" d="M249.1,200.7l-29.3-44l-29.4,44h-23.5l41-57.9l-41-59.4h24l29.3,44l29.6-44h23.4l-41,57.8l41,59.5H249.1z"/>
	</g>
</g>
<g id="Layer_1" class="st0">
	<g class="st5">
		<rect x="-79.2" y="114.4" class="st3" width="451.2" height="517.6"/>
		<path class="st4" d="M-38.4,233.6c-13.3,0-26.6-4.8-36.8-11.5l6.9-17.9c9.3,6.7,20.5,10.9,30.6,10.9c12.3,0,17.8-7.2,17.8-15.4
			c0-8.2-3.5-13.3-22.1-21.1c-20.5-8.6-27.8-19.2-27.8-33.3c0-17,14.1-32.8,38.6-32.8c11.4,0,22.6,3.8,29.4,8.5l-6.4,17.6
			c-6.2-4.3-15.5-8.3-23.5-8.3c-12.3,0-18.1,6.7-18.1,14.6c0,7.8,5.8,12.5,20.3,18.9c23.2,10.1,29.9,19.5,29.9,34.9
			C0.3,217.4-14.3,233.6-38.4,233.6z"/>
		<path class="st4" d="M41.6,232.8c-9.9,0-21.6-1-31.7-2.2V115.7c8.6-1.3,20.5-2.2,30.1-2.2c30.9,0,46.1,15,46.1,30.7
			c0,12.3-5.8,21.3-20.5,26.7c17.1,4.8,23.7,15.2,23.7,28.2C89.3,216.5,73.1,232.8,41.6,232.8z M43.5,130.7c-5,0-9.9,0.5-13.9,1.1
			v32.5c2.9,0.3,6.9,0.5,11.8,0.5c17,0,24-7.5,24-17.3S58.2,130.7,43.5,130.7z M41.7,179c-4.2,0-9.4,0.2-12.2,0.5v35.2
			c4,0.5,8.8,0.8,14.2,0.8c16,0,24-7.5,24-18.6C67.8,186.9,59,179,41.7,179z"/>
		<path class="st4" d="M-51.6,273.5v44.6h-9v-44.6h-16.8v-8.2h42.5v8.2H-51.6z"/>
		<path class="st4" d="M-30.3,318.1v-52.8H1.9v8.2h-23.2v13.8h21v7.9h-21v14.6H1.9v8.2H-30.3z"/>
		<path class="st4" d="M42.3,318.1l-13.2-19.8l-13.2,19.8H5.3L23.7,292L5.3,265.3h10.8l13.2,19.8l13.3-19.8h10.5l-18.4,26l18.4,26.8
			H42.3z"/>
		<path class="st4" d="M79.2,273.5v44.6h-9v-44.6H53.4v-8.2h42.5v8.2H79.2z"/>
	</g>
</g>
</svg>
